<svg xmlns="http://www.w3.org/2000/svg" width="512" height="512" viewBox="0 0 512 512">
  <g id="whatsapp2" transform="translate(0 -0.001)">
    <path id="Trazado_1" data-name="Trazado 1" d="M123.832,475.465a254.125,254.125,0,0,0,131.262,36.352C395.918,511.817,512,396.9,512,255.907,512,115.075,396.082,0,255.094,0,114.535,0,.184,114.8.184,255.907A256.137,256.137,0,0,0,36.536,388.165L0,512ZM30.176,255.906c0-124.57,100.9-225.918,224.918-225.918,125.121,0,226.918,101.348,226.918,225.918s-101.8,225.918-226.918,225.918A224.131,224.131,0,0,1,134.11,446.551l-5.766-3.684L44.356,467.648l24.777-83.992-3.684-5.762A225.885,225.885,0,0,1,30.176,255.906Zm0,0" fill="#fff"/>
    <path id="Trazado_2" data-name="Trazado 2" d="M124.629,208.754c4.953,26.012,19.656,76.043,62.465,118.852s92.84,57.516,118.855,62.469c29.789,5.672,73.5,6.527,94.867-14.836l11.91-11.91a31.833,31.833,0,0,0,0-45.02L365.1,270.68a31.837,31.837,0,0,0-45.023,0l-11.906,11.906c-7.273,7.273-21,7.3-28.332.09l-47.508-49.5c-.07-.074-.141-.148-.215-.219a18.708,18.708,0,0,1,0-26.426l11.906-11.906a31.814,31.814,0,0,0,0-45.023L196.39,101.973a31.873,31.873,0,0,0-45.02,0l-11.906,11.91v0c-17.051,17.055-22.734,53.406-14.836,94.875Zm36.043-73.664c12.5-12.215,11.832-12.449,13.211-12.449a1.839,1.839,0,0,1,1.3.539c50.188,50.457,48.172,47.492,48.172,48.938a1.8,1.8,0,0,1-.539,1.3l-11.91,11.906a48.65,48.65,0,0,0-.121,68.715l47.535,49.531c.074.07.145.145.219.219,18.961,18.961,51.809,19.023,70.832,0l11.906-11.906a1.848,1.848,0,0,1,2.609,0c50.188,50.453,48.172,47.488,48.172,48.934a1.8,1.8,0,0,1-.539,1.3l-11.91,11.906c-8.16,8.16-34.152,13.043-68.055,6.586C288.934,356.3,245.43,343.531,208.3,306.4S158.4,225.77,154.09,203.145c-6.461-33.9-1.578-59.9,6.582-68.055Zm0,0" fill="#fff"/>
  </g>
</svg>
